solid vcg
  facet normal  0.000000e+00 -1.000000e+00  0.000000e+00
    outer loop
      vertex   8.000000e+00 -2.900000e+01  2.000000e+01
      vertex   8.000000e+00 -2.900000e+01  0.000000e+00
      vertex   2.800000e+01 -2.900000e+01  0.000000e+00
    endloop
  endfacet
  facet normal  0.000000e+00 -1.000000e+00  0.000000e+00
    outer loop
      vertex   8.000000e+00 -2.900000e+01  2.000000e+01
      vertex   2.800000e+01 -2.900000e+01  0.000000e+00
      vertex   2.800000e+01 -2.900000e+01  2.000000e+01
    endloop
  endfacet
  facet normal  0.000000e+00  1.000000e+00  0.000000e+00
    outer loop
      vertex   8.000000e+00 -9.000000e+00  0.000000e+00
      vertex   8.000000e+00 -9.000000e+00  2.000000e+01
      vertex   2.800000e+01 -9.000000e+00  2.000000e+01
    endloop
  endfacet
  facet normal  0.000000e+00  1.000000e+00  0.000000e+00
    outer loop
      vertex   8.000000e+00 -9.000000e+00  0.000000e+00
      vertex   2.800000e+01 -9.000000e+00  2.000000e+01
      vertex   2.800000e+01 -9.000000e+00  0.000000e+00
    endloop
  endfacet
  facet normal  0.000000e+00  0.000000e+00 -1.000000e+00
    outer loop
      vertex   8.000000e+00 -2.900000e+01  0.000000e+00
      vertex   8.000000e+00 -9.000000e+00  0.000000e+00
      vertex   2.800000e+01 -9.000000e+00  0.000000e+00
    endloop
  endfacet
  facet normal  0.000000e+00  0.000000e+00 -1.000000e+00
    outer loop
      vertex   8.000000e+00 -2.900000e+01  0.000000e+00
      vertex   2.800000e+01 -9.000000e+00  0.000000e+00
      vertex   2.800000e+01 -2.900000e+01  0.000000e+00
    endloop
  endfacet
  facet normal  1.000000e+00  0.000000e+00  0.000000e+00
    outer loop
      vertex   8.997000e+00 -2.800300e+01  2.000000e+01
      vertex   8.997000e+00 -2.800300e+01  9.970000e-01
      vertex   8.997000e+00 -9.997000e+00  9.970000e-01
    endloop
  endfacet
  facet normal  1.000000e+00 -0.000000e+00  0.000000e+00
    outer loop
      vertex   8.997000e+00 -2.800300e+01  2.000000e+01
      vertex   8.997000e+00 -9.997000e+00  9.970000e-01
      vertex   8.997000e+00 -9.997000e+00  2.000000e+01
    endloop
  endfacet
  facet normal -1.000000e+00  0.000000e+00 -0.000000e+00
    outer loop
      vertex   2.700300e+01 -9.997000e+00  2.000000e+01
      vertex   2.700300e+01 -9.997000e+00  9.970000e-01
      vertex   2.700300e+01 -2.800300e+01  9.970000e-01
    endloop
  endfacet
  facet normal -1.000000e+00 -0.000000e+00  0.000000e+00
    outer loop
      vertex   2.700300e+01 -9.997000e+00  2.000000e+01
      vertex   2.700300e+01 -2.800300e+01  9.970000e-01
      vertex   2.700300e+01 -2.800300e+01  2.000000e+01
    endloop
  endfacet
  facet normal  0.000000e+00 -0.000000e+00  1.000000e+00
    outer loop
      vertex   2.700300e+01 -2.800300e+01  9.970000e-01
      vertex   2.700300e+01 -9.997000e+00  9.970000e-01
      vertex   8.997000e+00 -9.997000e+00  9.970000e-01
    endloop
  endfacet
  facet normal  0.000000e+00  0.000000e+00  1.000000e+00
    outer loop
      vertex   2.700300e+01 -2.800300e+01  9.970000e-01
      vertex   8.997000e+00 -9.997000e+00  9.970000e-01
      vertex   8.997000e+00 -2.800300e+01  9.970000e-01
    endloop
  endfacet
  facet normal  0.000000e+00  0.000000e+00  1.000000e+00
    outer loop
      vertex   8.000000e+00 -9.000000e+00  2.000000e+01
      vertex   8.997000e+00 -9.997000e+00  2.000000e+01
      vertex   2.700300e+01 -9.997000e+00  2.000000e+01
    endloop
  endfacet
  facet normal -0.000000e+00  0.000000e+00  1.000000e+00
    outer loop
      vertex   8.000000e+00 -9.000000e+00  2.000000e+01
      vertex   2.700300e+01 -9.997000e+00  2.000000e+01
      vertex   2.800000e+01 -9.000000e+00  2.000000e+01
    endloop
  endfacet
  facet normal  0.000000e+00 -1.000000e+00  0.000000e+00
    outer loop
      vertex   8.997000e+00 -9.997000e+00  2.000000e+01
      vertex   8.997000e+00 -9.997000e+00  9.970000e-01
      vertex   2.700300e+01 -9.997000e+00  9.970000e-01
    endloop
  endfacet
  facet normal  0.000000e+00 -1.000000e+00  0.000000e+00
    outer loop
      vertex   8.997000e+00 -9.997000e+00  2.000000e+01
      vertex   2.700300e+01 -9.997000e+00  9.970000e-01
      vertex   2.700300e+01 -9.997000e+00  2.000000e+01
    endloop
  endfacet
  facet normal  1.000000e+00  0.000000e+00  0.000000e+00
    outer loop
      vertex   2.800000e+01 -9.000000e+00  2.000000e+01
      vertex   2.800000e+01 -2.900000e+01  2.000000e+01
      vertex   2.800000e+01 -2.900000e+01  0.000000e+00
    endloop
  endfacet
  facet normal  1.000000e+00  0.000000e+00 -0.000000e+00
    outer loop
      vertex   2.800000e+01 -9.000000e+00  0.000000e+00
      vertex   2.800000e+01 -9.000000e+00  2.000000e+01
      vertex   2.800000e+01 -2.900000e+01  0.000000e+00
    endloop
  endfacet
  facet normal -0.000000e+00  0.000000e+00  1.000000e+00
    outer loop
      vertex   8.997000e+00 -2.800300e+01  2.000000e+01
      vertex   8.000000e+00 -2.900000e+01  2.000000e+01
      vertex   2.700300e+01 -2.800300e+01  2.000000e+01
    endloop
  endfacet
  facet normal  0.000000e+00  0.000000e+00  1.000000e+00
    outer loop
      vertex   8.000000e+00 -9.000000e+00  2.000000e+01
      vertex   8.000000e+00 -2.900000e+01  2.000000e+01
      vertex   8.997000e+00 -2.800300e+01  2.000000e+01
    endloop
  endfacet
  facet normal  0.000000e+00  0.000000e+00  1.000000e+00
    outer loop
      vertex   8.000000e+00 -2.900000e+01  2.000000e+01
      vertex   2.800000e+01 -2.900000e+01  2.000000e+01
      vertex   2.700300e+01 -2.800300e+01  2.000000e+01
    endloop
  endfacet
  facet normal  0.000000e+00 -0.000000e+00  1.000000e+00
    outer loop
      vertex   8.997000e+00 -2.800300e+01  2.000000e+01
      vertex   8.997000e+00 -9.997000e+00  2.000000e+01
      vertex   8.000000e+00 -9.000000e+00  2.000000e+01
    endloop
  endfacet
  facet normal  0.000000e+00  1.000000e+00  0.000000e+00
    outer loop
      vertex   8.997000e+00 -2.800300e+01  9.970000e-01
      vertex   8.997000e+00 -2.800300e+01  2.000000e+01
      vertex   2.700300e+01 -2.800300e+01  2.000000e+01
    endloop
  endfacet
  facet normal  0.000000e+00  1.000000e+00  0.000000e+00
    outer loop
      vertex   8.997000e+00 -2.800300e+01  9.970000e-01
      vertex   2.700300e+01 -2.800300e+01  2.000000e+01
      vertex   2.700300e+01 -2.800300e+01  9.970000e-01
    endloop
  endfacet
  facet normal -0.000000e+00  0.000000e+00  1.000000e+00
    outer loop
      vertex   2.700300e+01 -2.800300e+01  2.000000e+01
      vertex   2.800000e+01 -2.900000e+01  2.000000e+01
      vertex   2.700300e+01 -9.997000e+00  2.000000e+01
    endloop
  endfacet
  facet normal  0.000000e+00  0.000000e+00  1.000000e+00
    outer loop
      vertex   2.800000e+01 -9.000000e+00  2.000000e+01
      vertex   2.700300e+01 -9.997000e+00  2.000000e+01
      vertex   2.800000e+01 -2.900000e+01  2.000000e+01
    endloop
  endfacet
  facet normal -1.000000e+00  0.000000e+00  0.000000e+00
    outer loop
      vertex   8.000000e+00 -2.900000e+01  0.000000e+00
      vertex   8.000000e+00 -2.900000e+01  2.000000e+01
      vertex   8.000000e+00 -9.000000e+00  0.000000e+00
    endloop
  endfacet
  facet normal -1.000000e+00 -0.000000e+00 -0.000000e+00
    outer loop
      vertex   8.000000e+00 -9.000000e+00  2.000000e+01
      vertex   8.000000e+00 -9.000000e+00  0.000000e+00
      vertex   8.000000e+00 -2.900000e+01  2.000000e+01
    endloop
  endfacet
endsolid vcg
